<svg width="98" height="56" viewBox="0 0 490 467" fill="none" xmlns="http://www.w3.org/2000/svg">
  <path d="M366.813 0H252.682C205.758 0 164.256 30.5145 150.198 75.3493L140.693 105.596C146.517 87.5283 163.318 75.3493 182.329 75.3493H313.462L302.953 109.009C298.468 123.195 285.281 132.899 270.421 132.899H211.113C206.963 132.899 202.946 133.233 198.93 133.702C199.867 137.248 200.403 140.929 200.403 144.743C200.403 168.298 181.258 187.436 157.696 187.436C145.446 187.436 134.468 182.217 126.703 173.986C118.804 184.024 112.512 195.534 108.562 208.248L85 283.53H129.113C149.864 283.53 168.138 270.08 174.363 250.339L180.053 232.137C184.471 217.951 197.658 208.248 212.519 208.248H271.893C318.817 208.248 360.387 177.733 374.377 132.965L401.286 47.0431C408.583 23.7558 391.178 0.0669177 366.813 0.0669177V0Z" fill="#E53935"/>
  <path d="M185.54 135.977C181.792 124.133 170.814 115.434 157.761 115.434C141.628 115.434 128.441 128.549 128.441 144.744C128.441 152.104 131.253 158.729 135.738 163.882C141.093 170.038 148.925 174.054 157.761 174.054C173.893 174.054 187.08 160.938 187.08 144.744C187.08 141.665 186.477 138.788 185.607 135.977H185.54Z" fill="#333233"/>
  <path d="M425.367 387.363V419.263C425.367 426.051 428.082 428.313 434.982 428.313H472.651V387.363H489.054V447.543C489.054 461.231 482.606 467 467.335 467H442.788V453.199H465.864C470.502 453.199 472.651 451.729 472.651 446.638V441.661H433.964C415.639 441.661 408.738 434.761 408.738 419.942V387.363H425.367Z" fill="#333233"/>
  <path d="M369.237 448.675H336.093C318.446 448.675 313.695 442.453 313.695 432.498V426.729C313.695 416.435 317.994 410.553 334.962 410.553H380.323V409.196C380.323 401.39 377.382 399.354 369.916 399.354H353.174V387.363H369.916C389.486 387.363 397.178 394.377 397.178 409.987V424.919C397.178 442.679 390.957 448.675 369.237 448.675ZM380.323 426.164V420.96H336.772C332.813 420.96 330.437 422.318 330.437 427.182V431.367C330.437 435.666 333.039 437.136 337.337 437.136H369.011C376.93 437.136 380.323 435.326 380.323 426.164Z" fill="#333233"/>
  <path d="M278.838 426.621H234.269V448.679H217.074V371.531H278.838C300.897 371.531 307.797 378.205 307.797 396.418V403.092C307.797 421.531 301.349 426.621 278.838 426.621ZM290.603 402.413V397.096C290.603 388.726 287.661 386.35 278.386 386.35H234.269V412.707H278.612C287.661 412.707 290.603 410.558 290.603 402.413Z" fill="#333233"/>
  <path d="M209.499 448.675H188.458L167.757 426.503L146.717 448.675H126.129L157.916 416.775L128.278 387.363H148.527L168.436 408.064L188.798 387.363H209.159L178.504 417.34L209.499 448.675Z" fill="#333233"/>
  <path d="M118.714 448.673H101.52V388.945H118.714V448.673ZM112.832 383.855H107.289C103.103 383.855 101.52 382.271 101.52 378.651V372.09C101.52 368.471 103.103 367 107.289 367H112.832C117.13 367 118.714 368.471 118.714 372.09V378.651C118.714 382.271 117.13 383.855 112.832 383.855Z" fill="#333233"/>
  <path d="M61.7638 426.621H17.1943V448.679H0V371.531H61.7638C83.8223 371.531 90.7226 378.205 90.7226 396.418V403.092C90.7226 421.531 84.2748 426.621 61.7638 426.621ZM73.5283 402.413V397.096C73.5283 388.726 70.5872 386.35 61.3113 386.35H17.1943V412.707H61.5376C70.5872 412.707 73.5283 410.558 73.5283 402.413Z" fill="#333233"/>
</svg>
